<svg xmlns="http://www.w3.org/2000/svg" viewBox="0 0 55.99 43.24"><defs><style>.cls-1{fill:#1d1d1d;}</style></defs><title>logo</title><g id="Layer_2" data-name="Layer 2"><g id="Layer_1-2" data-name="Layer 1"><path class="cls-1" d="M54.69,26.16l-8.29-5L46.73,11,33.2,2.92,30.74,7.79,17.73,0,7.22,20.76A66.12,66.12,0,0,1,1.08,30.6L0,32.05,18.68,43.24,25,30.69l9,5.4,2.62-5.17,6.25,3.73c4.72,2.59,6.53,3.06,8,3a4.91,4.91,0,0,0,4.89-4.4L56,28.56A2.65,2.65,0,0,0,54.69,26.16ZM18,40.94,2.38,31.59a67.08,67.08,0,0,0,6.29-10.1L18.4,2.3l14.73,8.81Zm17.43-11.2L34.7,10.16,32.14,8.63l1.72-3.42,10.73,6.42ZM54.2,33.17a3.26,3.26,0,0,1-3.27,2.9,3.18,3.18,0,0,1-3.28-3.21L48,24l5.92,3.55a1.1,1.1,0,0,1,.52,1Z"/></g></g></svg>