<?xml version="1.0" encoding="utf-8"?>
<!-- Generator: Adobe Illustrator 23.0.1, SVG Export Plug-In . SVG Version: 6.00 Build 0)  -->
<svg version="1.1" id="Layer_1" xmlns="http://www.w3.org/2000/svg" xmlns:xlink="http://www.w3.org/1999/xlink" x="0px" y="0px"
	 viewBox="0 0 56 43.2" style="enable-background:new 0 0 56 43.2;" xml:space="preserve">
<style type="text/css">
	.st0{fill:#1D1D1D;}
</style>
<title>logo</title>
<g>
	<path class="st0" d="M54.7,26.2l-8.3-5L46.7,11L33.2,2.9l-2.5,4.9L17.7,0L7.2,20.8c-1.8,3.5-3.8,6.8-6.1,9.8L0,32l18.7,11.2
		L25,30.7l9,5.4l2.6-5.2l6.3,3.7c4.7,2.6,6.5,3.1,8,3c2.5,0,4.6-1.9,4.9-4.4l0.2-4.7C56,27.6,55.5,26.7,54.7,26.2z M18,40.9
		L2.4,31.6c2.4-3.2,4.5-6.5,6.3-10.1l9.7-19.2l14.7,8.8L18,40.9z M35.4,29.7l-0.7-19.6l-2.6-1.5l1.7-3.4l10.7,6.4L35.4,29.7z
		 M54.2,33.2c-0.2,1.7-1.6,2.9-3.3,2.9c-0.9,0-3.3-0.6-3.3-3.2L48,24l5.9,3.5c0.3,0.2,0.5,0.6,0.5,1L54.2,33.2z"/>
</g>
</svg>
