<svg xmlns="http://www.w3.org/2000/svg" viewBox="0 0 300 300"><defs><style>.cls-1{fill:#fff;}</style></defs><title>OMCDev icon_1</title><g id="Layer_2" data-name="Layer 2"><g id="Layer_1-2" data-name="Layer 1"><rect width="300" height="300"/><path class="cls-1" d="M73.16,94.36Q64.54,91.3,53.7,93.23a47.61,47.61,0,0,0-19.47,8,44.84,44.84,0,0,0-13.56,15.09,39.15,39.15,0,0,0-4.92,19.12,30.13,30.13,0,0,0,4.92,17.37,26.77,26.77,0,0,0,13.56,10.28q8.64,3,19.47,1.13a47.51,47.51,0,0,0,19.46-8,44.76,44.76,0,0,0,13.57-15.09A39.18,39.18,0,0,0,91.65,122q0-10.16-4.92-17.37A26.75,26.75,0,0,0,73.16,94.36ZM69.7,136.1a22.77,22.77,0,0,1-6.63,8.05,21.54,21.54,0,0,1-9.37,4.11,16.79,16.79,0,0,1-9.37-.78,13.56,13.56,0,0,1-6.63-5.7A18.41,18.41,0,0,1,35.26,132a23.33,23.33,0,0,1,2.44-10.63,22.69,22.69,0,0,1,6.63-8.06,21.52,21.52,0,0,1,9.37-4.1,16.79,16.79,0,0,1,9.37.78,13.6,13.6,0,0,1,6.63,5.7,18.39,18.39,0,0,1,2.44,9.76A23.36,23.36,0,0,1,69.7,136.1Z"/><polygon class="cls-1" points="160.25 75.69 136.83 119.26 112.83 84.1 96.92 86.92 96.92 155.22 114.78 152.05 114.78 116.83 132.24 142.22 140.83 140.7 158.39 108.12 158.59 144.28 176.34 141.13 176.15 72.86 160.25 75.69"/><path class="cls-1" d="M210.25,83.89a23.22,23.22,0,0,1,9.9-4.2,17.06,17.06,0,0,1,16.1,5.15l12.29-13.31a25.51,25.51,0,0,0-12.48-7.34,39.08,39.08,0,0,0-16.88-.33,47.14,47.14,0,0,0-19.27,8,43.84,43.84,0,0,0-13.42,15,39.54,39.54,0,0,0-4.88,19.2q0,10.24,4.88,17.48a26.26,26.26,0,0,0,13.42,10.26q8.53,3,19.27,1.11a47.4,47.4,0,0,0,16.88-6.31,42,42,0,0,0,12.48-11.78l-12.29-8.94q-6.63,9.18-16.1,10.86a18.31,18.31,0,0,1-9.9-.68,13,13,0,0,1-6.73-5.69,18.69,18.69,0,0,1-2.4-9.77A23.65,23.65,0,0,1,203.52,92,21.84,21.84,0,0,1,210.25,83.89Z"/><path class="cls-1" d="M149.12,163.53q-8.69-2.66-19.9-.67l-32.3,5.73v68.3l32.3-5.73a52.14,52.14,0,0,0,19.9-7.72,41,41,0,0,0,13.47-14.3,38.14,38.14,0,0,0,4.78-18.9q0-10.34-4.78-17.2A24.63,24.63,0,0,0,149.12,163.53Zm-6.58,44.88a24,24,0,0,1-14.1,7.48l-12.2,2.16V180.58l12.2-2.16q8.77-1.56,14.1,2.47t5.31,12.82A21.22,21.22,0,0,1,142.54,208.41Z"/><path class="cls-1" d="M212.83,165.83a29.19,29.19,0,0,0-14.34-.72,36.65,36.65,0,0,0-14.93,6.16,34.1,34.1,0,0,0-10.39,11.55,30.16,30.16,0,0,0-3.76,14.67A23.07,23.07,0,0,0,173.27,211a20.4,20.4,0,0,0,10.88,7.82q7,2.26,16.29.62,14.84-2.62,22.54-12.58l-9.76-8.42a24.55,24.55,0,0,1-5.61,4.51,20.81,20.81,0,0,1-6.58,2.24,13.82,13.82,0,0,1-8.44-.7,8.4,8.4,0,0,1-4.54-5.48l38.44-6.83c.2-3,.3-4.5.3-4.63q0-8.49-3.76-14A19.31,19.31,0,0,0,212.83,165.83Zm-25.07,23.43a13.57,13.57,0,0,1,3.66-7.28,12.76,12.76,0,0,1,7.17-3.71,9.49,9.49,0,0,1,7.17,1.16,8.83,8.83,0,0,1,3.66,6Z"/><polygon class="cls-1" points="267.57 153.73 254.2 188.4 241.52 158.35 222.49 161.73 244.25 210.75 263.37 207.36 285.23 150.6 267.57 153.73"/></g></g></svg>