<svg xmlns="http://www.w3.org/2000/svg" viewBox="0 0 300 134"><defs><style>.cls-1{fill:#fff;}</style></defs><title>OMCDev Logo</title><g id="Layer_2" data-name="Layer 2"><g id="Layer_1-2" data-name="Layer 1"><polygon points="300 81.1 0 134 0 52.9 300 0 300 81.1"/><path class="cls-1" d="M52.75,64.83a23.92,23.92,0,0,0-12.31-.72,30.2,30.2,0,0,0-12.31,5.08,28.46,28.46,0,0,0-8.58,9.55,24.72,24.72,0,0,0-3.12,12.09,19,19,0,0,0,3.12,11,16.85,16.85,0,0,0,8.58,6.5,23.92,23.92,0,0,0,12.31.72A30.08,30.08,0,0,0,52.75,104a28.33,28.33,0,0,0,8.58-9.54,24.76,24.76,0,0,0,3.12-12.1,19,19,0,0,0-3.12-11A16.85,16.85,0,0,0,52.75,64.83Zm-2.19,26.4a14.47,14.47,0,0,1-4.19,5.09,13.58,13.58,0,0,1-5.93,2.6,10.69,10.69,0,0,1-5.92-.49,8.62,8.62,0,0,1-4.2-3.61,11.66,11.66,0,0,1-1.54-6.18,14.81,14.81,0,0,1,1.54-6.72,14.39,14.39,0,0,1,4.2-5.09,13.5,13.5,0,0,1,5.92-2.6,10.64,10.64,0,0,1,5.93.49,8.64,8.64,0,0,1,4.19,3.61,11.65,11.65,0,0,1,1.55,6.17A14.83,14.83,0,0,1,50.56,91.23Z"/><polygon class="cls-1" points="107.83 53.01 93.02 80.58 77.84 58.34 67.78 60.12 67.78 103.32 79.08 101.32 79.08 79.04 90.12 95.1 95.55 94.14 106.66 73.53 106.79 96.4 118.02 94.41 117.89 51.23 107.83 53.01"/><path class="cls-1" d="M139.46,58.2a14.66,14.66,0,0,1,6.27-2.65,10.77,10.77,0,0,1,10.18,3.25l7.78-8.41a16.18,16.18,0,0,0-7.9-4.65,24.54,24.54,0,0,0-10.68-.2,29.75,29.75,0,0,0-12.19,5,27.73,27.73,0,0,0-8.48,9.5,25,25,0,0,0-3.09,12.15,19.27,19.27,0,0,0,3.09,11,16.63,16.63,0,0,0,8.48,6.49,23.78,23.78,0,0,0,12.19.71,30.28,30.28,0,0,0,10.68-4,26.52,26.52,0,0,0,7.9-7.45l-7.78-5.65q-4.2,5.8-10.18,6.86a11.51,11.51,0,0,1-6.27-.43,8.23,8.23,0,0,1-4.25-3.59A11.9,11.9,0,0,1,133.69,70a15,15,0,0,1,1.52-6.72A13.84,13.84,0,0,1,139.46,58.2Z"/><path class="cls-1" d="M199.05,39.48a26.8,26.8,0,0,0-12.59-.42L166,42.69v43.2l20.43-3.63a33.17,33.17,0,0,0,12.59-4.88,26,26,0,0,0,8.52-9,24.12,24.12,0,0,0,3-11.95,18.62,18.62,0,0,0-3-10.88A15.61,15.61,0,0,0,199.05,39.48Zm-4.17,28.39A15.1,15.1,0,0,1,186,72.6L178.25,74V50.27L186,48.9q5.55-1,8.91,1.57t3.37,8.1A13.39,13.39,0,0,1,194.88,67.87Z"/><path class="cls-1" d="M238.73,41.05a18.34,18.34,0,0,0-9.07-.46,23.1,23.1,0,0,0-9.44,3.9,21.44,21.44,0,0,0-6.57,7.31,18.93,18.93,0,0,0-2.38,9.27,14.53,14.53,0,0,0,2.44,8.52,12.83,12.83,0,0,0,6.88,5,21.17,21.17,0,0,0,10.31.39q9.38-1.67,14.25-8L239,61.65a15.73,15.73,0,0,1-3.55,2.85,13.23,13.23,0,0,1-4.16,1.42,8.8,8.8,0,0,1-5.34-.44A5.33,5.33,0,0,1,223.06,62l24.31-4.32c.13-1.87.19-2.85.19-2.93a15.41,15.41,0,0,0-2.38-8.87A12.2,12.2,0,0,0,238.73,41.05ZM222.87,55.87a8.57,8.57,0,0,1,2.32-4.61,8.15,8.15,0,0,1,4.53-2.35,6,6,0,0,1,4.54.74,5.6,5.6,0,0,1,2.31,3.79Z"/><polygon class="cls-1" points="273.36 33.39 264.9 55.32 256.88 36.32 244.84 38.45 258.61 69.46 270.7 67.31 284.53 31.41 273.36 33.39"/></g></g></svg>