<svg id="Layer_1" data-name="Layer 1" xmlns="http://www.w3.org/2000/svg" viewBox="0 0 204.54 206.37"><defs><style>.cls-1{fill:#0047ff;}.cls-2{fill:#fff;}</style></defs><title>splash screen</title><rect class="cls-1" width="204.54" height="206.37"/><g id="Layer_1-2" data-name="Layer 1-2"><path class="cls-2" d="M129,107.72l-8.29-5L121,92.56l-13.53-8.08L105,89.35,92,81.56,81.49,102.32a65.82,65.82,0,0,1-6.14,9.84l-1.08,1.45L93,124.8l6.32-12.55,9,5.4,2.62-5.17,6.25,3.73c4.72,2.59,6.53,3.06,8,3a4.91,4.91,0,0,0,4.89-4.4l.24-4.69A2.65,2.65,0,0,0,129,107.72ZM92.27,122.5l-15.62-9.35a66.58,66.58,0,0,0,6.29-10.1l9.73-19.19,14.73,8.81Zm17.43-11.2L109,91.72l-2.56-1.53,1.72-3.42,10.73,6.42Zm18.77,3.43a3.26,3.26,0,0,1-3.27,2.9,3.18,3.18,0,0,1-3.28-3.08v-.13l.35-8.86,5.92,3.55a1.12,1.12,0,0,1,.52,1Z"/><path class="cls-1" d="M128.71,110.11l-.24,4.62a3.26,3.26,0,0,1-3.27,2.9,3.18,3.18,0,0,1-3.28-3.08v-.13l.35-8.86,5.92,3.55A1.12,1.12,0,0,1,128.71,110.11Z"/><polygon class="cls-1" points="118.86 93.19 109.7 111.31 108.97 91.72 106.41 90.19 108.13 86.78 118.86 93.19"/><path class="cls-1" d="M107.4,92.67,92.27,122.5l-15.62-9.35a66.58,66.58,0,0,0,6.29-10.1l9.73-19.19Z"/></g></svg>